<mxfile host="65bd71144e">
    <diagram id="nczVI3BKkf0eOJp8ncOw" name="第 1 页">
        <mxGraphModel dx="1229" dy="384" grid="1" gridSize="10" guides="1" tooltips="1" connect="1" arrows="1" fold="1" page="1" pageScale="1" pageWidth="1600" pageHeight="1200" math="0" shadow="0">
            <root>
                <mxCell id="0"/>
                <mxCell id="1" parent="0"/>
                <mxCell id="3" value="RPC远程过程调用" style="rounded=0;whiteSpace=wrap;html=1;" vertex="1" parent="1">
                    <mxGeometry x="100" y="160" width="180" height="50" as="geometry"/>
                </mxCell>
                <mxCell id="4" value="Raft共识算法" style="rounded=0;whiteSpace=wrap;html=1;" vertex="1" parent="1">
                    <mxGeometry x="100" y="110" width="180" height="50" as="geometry"/>
                </mxCell>
                <mxCell id="5" value="RocksDB KV存储服务" style="rounded=0;whiteSpace=wrap;html=1;" vertex="1" parent="1">
                    <mxGeometry x="100" y="60" width="180" height="50" as="geometry"/>
                </mxCell>
            </root>
        </mxGraphModel>
    </diagram>
</mxfile>